# xmcd
#
# Track frame offsets: 
#        150
#        10730
#        21947
#        34149
#        43767
#        55911
#        65434
#        76120
#        86878
#        99521
#        109846
#        123287
#        135327
#        151817
#        162628
#        174197
#        187338
#        199721
#        214025
#        225580
#        236332
#        248312
#        260878
#        270272
#        282443
#        294166
#        305186
#
# Disc length: 4228 seconds
#
# Revision: 0
# Processed by: cddbd v1.5.2PL0 Copyright (c) Steve Scherf et al.
# Submitted via: ExactAudioCopy v0.99pb4
#
DISCID=7110821b
DTITLE=Various Artist - Ol' Virginia Soul Part 1
DYEAR=1900
DGENRE=Soul
TTITLE0=Mark IV Wilson - Jump Up and Down, Part 1
TTITLE1=Sebastian and The House Rockers - Nobody Can Do the Dog Like I D
TTITLE1=o
TTITLE2=Sebastian and The House Rockers - The Best Man Cried
TTITLE3=Terry Sinclair - What Have You Heard
TTITLE4=Terry Sinclair - Clown Suit
TTITLE5=Lenis Guess - For All You've Been
TTITLE6=Lenis Guess - Thank Goodness
TTITLE7=The Honey Bees - It Happen On A Tuesday
TTITLE8=Stacy Henry and The Majestics - Thru The Lonely Years
TTITLE9=Bee Gee Stans - Front Page Love
TTITLE10=Gene and The Teen Beats - I'll Carry On
TTITLE11=Ida Sands - Rescue Me
TTITLE12=Ida Sands - Prophesize
TTITLE13=The Anglos - Since You've Been Gone
TTITLE14=The Soul Duo - This Is Your Day
TTITLE15=Barbara Stant - I'm Going to Outfit You Baby
TTITLE16=Gene and The Team Beats - I'll Let Nothing Separate Me
TTITLE17=Soulmasters - You Took Away the Sunshine
TTITLE18=Soul Brothers, Inc. - Teardrops
TTITLE19=Red Coats Revue, Inc. - Keep On Trying
TTITLE20=The D.C. Magnatones - Does She Love Me
TTITLE21=Dream Team - There He is
TTITLE22=Dream Team - I'm Not Satisfied
TTITLE23=Bernard Smith and Jokers Wild - Gotta Be A Reason
TTITLE24=Alvin Delk and Rocking Cavaliers - Ain't Nothin' Shakin'
TTITLE25=Little Ceaser and The Euterpeans - Good Good Lovin
TTITLE26=Mark IV Wilson - Jump Up and Down, Part 2
EXTD=
EXTT0=
EXTT1=
EXTT2=
EXTT3=
EXTT4=
EXTT5=
EXTT6=
EXTT7=
EXTT8=
EXTT9=
EXTT10=
EXTT11=
EXTT12=
EXTT13=
EXTT14=
EXTT15=
EXTT16=
EXTT17=
EXTT18=
EXTT19=
EXTT20=
EXTT21=
EXTT22=
EXTT23=
EXTT24=
EXTT25=
EXTT26=
PLAYORDER=
